<svg xmlns="http://www.w3.org/2000/svg" xmlns:xlink="http://www.w3.org/1999/xlink" width="25" height="25" viewBox="0 0 25 25">
  <defs>
    <clipPath id="clip-path">
      <rect id="Rectangle_5" data-name="Rectangle 5" width="25" height="25" transform="translate(1416.605 32.605)" fill="#fff"/>
    </clipPath>
  </defs>
  <g id="instagram" transform="translate(-1416.605 -32.605)" clip-path="url(#clip-path)">
    <path id="instagram_2_" data-name="instagram (2)" d="M12.329,9.558a6.323,6.323,0,1,0,6.323,6.323A6.313,6.313,0,0,0,12.329,9.558Zm0,10.434a4.111,4.111,0,1,1,4.111-4.111,4.118,4.118,0,0,1-4.111,4.111ZM20.385,9.3A1.475,1.475,0,1,1,18.91,7.825,1.471,1.471,0,0,1,20.385,9.3Zm4.188,1.5a7.3,7.3,0,0,0-1.992-5.168,7.347,7.347,0,0,0-5.168-1.992c-2.036-.116-8.139-.116-10.176,0A7.336,7.336,0,0,0,2.07,5.623,7.323,7.323,0,0,0,.078,10.791c-.116,2.036-.116,8.139,0,10.176A7.3,7.3,0,0,0,2.07,26.134a7.356,7.356,0,0,0,5.168,1.992c2.036.116,8.139.116,10.176,0a7.3,7.3,0,0,0,5.168-1.992,7.347,7.347,0,0,0,1.992-5.168c.116-2.036.116-8.134,0-10.17ZM21.943,23.151A4.162,4.162,0,0,1,19.6,25.5c-1.623.644-5.476.5-7.27.5s-5.652.143-7.27-.5a4.162,4.162,0,0,1-2.344-2.344c-.644-1.623-.5-5.476-.5-7.27s-.143-5.652.5-7.27A4.162,4.162,0,0,1,5.059,6.267c1.623-.644,5.476-.5,7.27-.5s5.652-.143,7.27.5a4.162,4.162,0,0,1,2.344,2.344c.644,1.623.5,5.476.5,7.27S22.587,21.533,21.943,23.151Z" transform="translate(1416.945 29.389)" fill="#fff"/>
  </g>
</svg>
