<svg xmlns="http://www.w3.org/2000/svg" xmlns:xlink="http://www.w3.org/1999/xlink" width="125.065" height="55.161" viewBox="0 0 125.065 55.161">
  <defs>
    <linearGradient id="linear-gradient" x1="-0.004" y1="0.5" x2="0.996" y2="0.5" gradientUnits="objectBoundingBox">
      <stop offset="0.15" stop-color="#c5d73a"/>
      <stop offset="1" stop-color="#46b359"/>
    </linearGradient>
  </defs>
  <g id="simplyfit_logo" transform="translate(-302 -21)">
    <g id="simplyfit_logo-2" data-name="simplyfit_logo" transform="translate(302 21)">
      <g id="simplyfit_logo-3" data-name="simplyfit_logo">
        <g id="HEALTH-CLUB" transform="translate(99.748 42.846)">
          <path id="H" d="M630.18,273.229V270.94h.462v.9h.905v-.9h.462v2.289h-.462v-1h-.905v1Z" transform="translate(-630.18 -270.9)" fill="#f1f1f1"/>
          <path id="E" d="M644.76,273.229V270.94h1.7v.388h-1.235v.507h1.149v.382h-1.149v.633H646.5v.385Z" transform="translate(-642.452 -270.9)" fill="#f1f1f1"/>
          <path id="A" d="M659.057,273.229h-.5l-.2-.519h-.915l-.188.519h-.491l.891-2.289h.489Zm-.852-.905-.317-.848-.3.848Z" transform="translate(-652.553 -270.9)" fill="#f1f1f1"/>
          <path id="L" d="M672.9,273.33v-2.27h.462v1.89h1.147v.385Z" transform="translate(-666.138 -271)" fill="#f1f1f1"/>
          <path id="T" d="M683.3,273.237v-1.9h-.679v-.388h1.819v.388h-.677v1.9Z" transform="translate(-674.319 -270.908)" fill="#f1f1f1"/>
          <path id="H-2" data-name="H" d="M696,273.229V270.94h.461v.9h.905v-.9h.462v2.289h-.462v-1h-.905v1Z" transform="translate(-685.582 -270.9)" fill="#f1f1f1"/>
          <path id="C" d="M717.213,272.173l.448.141a1.012,1.012,0,0,1-.344.557,1.076,1.076,0,0,1-1.356-.13,1.187,1.187,0,0,1-.294-.852,1.246,1.246,0,0,1,.3-.888,1.01,1.01,0,0,1,.776-.317.95.95,0,0,1,.682.247.9.9,0,0,1,.234.423l-.457.109a.475.475,0,0,0-.483-.385.523.523,0,0,0-.413.184.888.888,0,0,0-.158.59.961.961,0,0,0,.158.619.5.5,0,0,0,.405.184.456.456,0,0,0,.317-.117A.685.685,0,0,0,717.213,272.173Z" transform="translate(-702.133 -270.684)" fill="#f1f1f1"/>
          <path id="L-2" data-name="L" d="M730.86,273.33v-2.27h.462v1.89h1.143v.385Z" transform="translate(-714.924 -271)" fill="#f1f1f1"/>
          <path id="U" d="M743.078,270.94h.459v1.239a2.616,2.616,0,0,0,.017.383.371.371,0,0,0,.141.226.5.5,0,0,0,.306.084.462.462,0,0,0,.3-.081.317.317,0,0,0,.12-.2,2.479,2.479,0,0,0,.021-.389V270.94h.462v1.2a3.066,3.066,0,0,1-.038.583.634.634,0,0,1-.138.286.693.693,0,0,1-.269.187,1.182,1.182,0,0,1-.44.07,1.267,1.267,0,0,1-.5-.076.7.7,0,0,1-.268-.2.619.619,0,0,1-.13-.255,2.76,2.76,0,0,1-.046-.579Z" transform="translate(-725.204 -270.9)" fill="#f1f1f1"/>
          <path id="B" d="M757.661,270.937h.915a2.527,2.527,0,0,1,.405.024.6.6,0,0,1,.239.093.6.6,0,0,1,.176.192.548.548,0,0,1-.017.563.537.537,0,0,1-.234.2.6.6,0,0,1,.316.207.557.557,0,0,1,.112.345.67.67,0,0,1-.073.3.6.6,0,0,1-.2.236.648.648,0,0,1-.317.108c-.078.009-.263.014-.557.016h-.779Zm.462.381v.529h.3a3.072,3.072,0,0,0,.336-.008.316.316,0,0,0,.187-.081.242.242,0,0,0,.068-.179.248.248,0,0,0-.059-.173.266.266,0,0,0-.174-.081h-.4Zm0,.91v.617h.427a2.056,2.056,0,0,0,.317-.014.271.271,0,0,0,.233-.286.3.3,0,0,0-.049-.174.271.271,0,0,0-.146-.1,1.544,1.544,0,0,0-.41-.033Z" transform="translate(-737.473 -270.896)" fill="#f1f1f1"/>
        </g>
        <g id="FIT" transform="translate(99.692 28.674)">
          <rect id="I" width="3.473" height="12.821" transform="translate(10.238 0.089)" fill="#46b359"/>
          <path id="F" d="M637.887,181.754v2.76h-4.674v2.493h4.453v2.672h-4.5v4.9H629.83V181.71Z" transform="translate(-629.83 -181.621)" fill="#46b359"/>
          <path id="T-2" data-name="T" d="M729.341,194.015v-9.793H726V181.15h10.151v3.117h-3.344v9.839H729.3S729.341,194.148,729.341,194.015Z" transform="translate(-710.778 -181.15)" fill="#46b359"/>
        </g>
        <g id="SIMPLY" transform="translate(35.253 28.796)">
          <path id="S" d="M226.882,181.962c-3.7.336-5.44,3.867-3.088,6.235a7.716,7.716,0,0,0,2.278,1.33,9.421,9.421,0,0,1,2,1.07.864.864,0,0,1-.245,1.375,5.6,5.6,0,0,1-3.5-.092,4.913,4.913,0,0,0-1.07-.275c-.016.03-.168.633-.317,1.33-.305,1.5-.367,1.425,1.284,1.789a9.8,9.8,0,0,0,5.165-.305,6.49,6.49,0,0,0,1.254-.749,4.172,4.172,0,0,0,1.084-2.705c-.014-1.986-1.1-3.056-4.508-4.372a1.726,1.726,0,0,1-.962-.717c-.565-1.162,1.162-1.713,3.324-1.04.671.214.95.245.992.122s.168-.6.305-1.108.275-1.024.317-1.162C231.343,182.222,228.821,181.794,226.882,181.962Z" transform="translate(-222.723 -181.925)" fill="#2f7bbf"/>
          <path id="I-2" data-name="I" d="M292.14,189.347v6.341H295.5V183H292.14Z" transform="translate(-281.152 -182.83)" fill="#2f7bbf"/>
          <path id="M" d="M327.977,183.715c0,.443-.158,3.3-.336,6.342l-.351,5.54h2.962l.092-.962c.046-.519.122-1.941.168-3.166.138-3.913.26-5.442.4-5.12.106.26,1.971,8.666,1.971,8.88a8.053,8.053,0,0,0,1.345.06h1.36l1.284-4.614c1.467-5.288,1.483-5.3,1.5-.872.016,1.391.062,3.27.123,4.157l.092,1.635h3.193l-.092-1.344c-.06-.734-.168-2.919-.244-4.845s-.2-4.187-.244-5.013l-.092-1.482h-4.383l-.23.791c-.122.443-.611,2.216-1.086,3.943s-.886,3.148-.916,3.194c-.092.092-.122-.032-.916-3.576-.4-1.773-.78-3.47-.856-3.8l-.158-.565h-4.563Z" transform="translate(-310.739 -182.746)" fill="#2f7bbf"/>
          <path id="P" d="M435.394,182.607a14.321,14.321,0,0,0-1.637.138l-.657.076v12.516h3.21V191.1l1.344-.092c3.226-.2,4.967-1.711,4.967-4.324s-1.635-4-4.859-4.1C437.013,182.577,435.943,182.577,435.394,182.607Zm3.231,2.721a1.674,1.674,0,0,1-.245,2.919,4.054,4.054,0,0,1-1.3.214h-.764V185.1h.916A3.87,3.87,0,0,1,438.624,185.328Z" transform="translate(-399.801 -182.478)" fill="#2f7bbf"/>
          <path id="L-3" data-name="L" d="M505,189.347v6.341h8.175v-2.749h-4.885V183H505Z" transform="translate(-460.32 -182.83)" fill="#2f7bbf"/>
          <path id="Y" d="M551.147,183.575c.168.317,1.068,2.018,2,3.761l1.681,3.166v5.165h3.364v-5.252l1.861-3.386c1.024-1.849,1.956-3.514,2.078-3.713l.217-.34h-3.775l-.894,2.533a18.623,18.623,0,0,1-.992,2.521,17.491,17.491,0,0,1-1.024-2.491l-.932-2.476-1.941-.046-1.941-.046Z" transform="translate(-498.912 -182.805)" fill="#2f7bbf"/>
        </g>
        <g id="Blue-Shape">
          <path id="Blue-Shape-2" data-name="Blue-Shape" d="M47.7,71.86S31.5,57.08,27.663,48.978,26.951,36.245,27.486,35s6.863-13.089,28.669-14.513c0,0-27.511-5.519-37.395,15.67,0,0-12.2-.533-15.847,2.76s-3.74,6.767-.98,9.972,10.417,8.191,21.9,12.821c0,0-12.286-7.568-18.252-15.225,0,0-1.869-3.561,2.582-4.006,0,0,2.672-1.068,10.062.177C18.226,42.658,16.355,54.32,47.7,71.86Z" transform="translate(-0.001 -16.698)" fill="#3579bc"/>
          <path id="Blue_Circle" d="M133.107,5.3c-.157-2.1,2.721-4.6,4.568-5.182,1.474-.465,4.133.464,4.432,2.244.089.535,1.157,3.918-4.63,5.431C137.47,7.792,133.375,8.862,133.107,5.3Z" transform="translate(-112.034 0.003)" fill="#3579bc"/>
        </g>
        <g id="Green-Shape" transform="translate(30 8.755)">
          <path id="Green_Shape" d="M191.031,76.877s-4.1-7.509,6.113-14.038c0,0,6.589-5.461,19.113-3.443,0,0,.237-.06-.119.3s-7.123,4.408-8.145,5.165-5.521,3.205-3.517,6.276,11.574-.177,12.5-.489c0,0,5.876-2.582,18.836-1.692A98.9,98.9,0,0,1,260.3,74.116a87.285,87.285,0,0,0-30.538-8.992,47.013,47.013,0,0,0-16.205,2.047s-.757.09-.356-.356,8.326-4.274,7.439-8.191-7.224-3.338-10.7-3.2c0,0-14.958,1.38-19.765,12.956C190.178,68.374,188.263,73.982,191.031,76.877Z" transform="translate(-189.533 -55.31)" fill="url(#linear-gradient)"/>
        </g>
      </g>
    </g>
  </g>
</svg>
